<svg xmlns="http://www.w3.org/2000/svg" width="80" height="72"
    viewBox="0 0 80 72">
    <clipPath id="c">
        <path fill="#57CDFF" fill-rule="evenodd"
            d="M0 22.021C0 9.883 9.655 0 21.622 0 28.882 0 34.953 3.804 40 10.737 45.047 3.804 51.117 0 58.378 0 70.345 0 80 9.883 80 22.021c0 3.984-1.64 8.05-4.083 12.016-2.459 3.99-5.859 8.083-9.666 12.163-3.814 4.086-8.1 8.226-12.359 12.292l-1.781 1.699c-3.666 3.494-7.263 6.923-10.53 10.255a2.214 2.214 0 0 1-3.162 0c-3.267-3.332-6.864-6.761-10.53-10.255l-1.781-1.699c-4.26-4.066-8.545-8.206-12.359-12.292-3.807-4.08-7.207-8.173-9.666-12.163C1.64 30.07 0 26.005 0 22.02v.001"
            clip-rule="evenodd" />
    </clipPath>
    <path fill="#57CDFF" fill-rule="evenodd"
        d="M0 22.021C0 9.883 9.655 0 21.622 0 28.882 0 34.953 3.804 40 10.737 45.047 3.804 51.117 0 58.378 0 70.345 0 80 9.883 80 22.021c0 3.984-1.64 8.05-4.083 12.016-2.459 3.99-5.859 8.083-9.666 12.163-3.814 4.086-8.1 8.226-12.359 12.292l-1.781 1.699c-3.666 3.494-7.263 6.923-10.53 10.255a2.214 2.214 0 0 1-3.162 0c-3.267-3.332-6.864-6.761-10.53-10.255l-1.781-1.699c-4.26-4.066-8.545-8.206-12.359-12.292-3.807-4.08-7.207-8.173-9.666-12.163C1.64 30.07 0 26.005 0 22.02v.001"
        clip-rule="evenodd" clip-path="url(#c)" />
</svg>