<svg xmlns="http://www.w3.org/2000/svg" width="80" height="80" viewBox="0 0 80 80">
    <clipPath id="a">
        <path fill="#DE5AFF" fill-rule="evenodd"
            d="M79.98 39.6c-12.72 0-22.6-3.58-29.3-10.28C43.98 22.62 40.4 12.72 40.4 0h-.8c0 12.73-3.58 22.61-10.28 29.32C22.62 36.02 12.72 39.6 0 39.6v.8c12.73 0 22.61 3.58 29.32 10.28 6.7 6.7 10.28 16.6 10.28 29.32h.8c0-12.73 3.58-22.61 10.28-29.32 6.7-6.7 16.58-10.28 29.3-10.28H80v-.8h-.02"
            clip-rule="evenodd" />
    </clipPath>
    <path fill="#DE5AFF" fill-rule="evenodd"
        d="M79.98 39.6c-12.72 0-22.6-3.58-29.3-10.28C43.98 22.62 40.4 12.72 40.4 0h-.8c0 12.73-3.58 22.61-10.28 29.32C22.62 36.02 12.72 39.6 0 39.6v.8c12.73 0 22.61 3.58 29.32 10.28 6.7 6.7 10.28 16.6 10.28 29.32h.8c0-12.73 3.58-22.61 10.28-29.32 6.7-6.7 16.58-10.28 29.3-10.28H80v-.8h-.02"
        clip-rule="evenodd" clip-path="url(#a)" />
</svg>